<mxfile host="app.diagrams.net" modified="2022-06-03T10:02:57.612Z" agent="5.0 (Macintosh; Intel Mac OS X 10_15_7) AppleWebKit/537.36 (KHTML, like Gecko) Chrome/102.0.5005.61 Safari/537.36" etag="Gee8JinnDMq06PdYeVES" version="18.1.3" type="github" pages="4">
  <diagram id="5Bgpg4QZmj8Q5ADuIZz-" name="全体構成">
    <mxGraphModel dx="910" dy="523" grid="1" gridSize="10" guides="1" tooltips="1" connect="1" arrows="1" fold="1" page="1" pageScale="1" pageWidth="1169" pageHeight="827" math="0" shadow="0">
      <root>
        <mxCell id="0" />
        <mxCell id="1" parent="0" />
      </root>
    </mxGraphModel>
  </diagram>
  <diagram id="wTfKXeCDNPPVg7Ran6rp" name="ファイル構成">
    <mxGraphModel dx="910" dy="523" grid="1" gridSize="10" guides="1" tooltips="1" connect="1" arrows="1" fold="1" page="1" pageScale="1" pageWidth="1169" pageHeight="827" math="0" shadow="0">
      <root>
        <mxCell id="DWsXqn6DtvlezWm5sOSw-0" />
        <mxCell id="DWsXqn6DtvlezWm5sOSw-1" parent="DWsXqn6DtvlezWm5sOSw-0" />
        <mxCell id="DWsXqn6DtvlezWm5sOSw-13" value="&lt;div&gt;&lt;div&gt;&lt;font face=&quot;monospace&quot; color=&quot;rgba(0, 0, 0, 0)&quot;&gt;&lt;span style=&quot;font-size: 0px;&quot;&gt;├── Dockerfile&lt;/span&gt;&lt;/font&gt;&lt;/div&gt;&lt;div&gt;&lt;font face=&quot;monospace&quot; color=&quot;rgba(0, 0, 0, 0)&quot;&gt;&lt;span style=&quot;font-size: 0px;&quot;&gt;├── Pipfile&lt;/span&gt;&lt;/font&gt;&lt;/div&gt;&lt;div&gt;&lt;font face=&quot;monospace&quot; color=&quot;rgba(0, 0, 0, 0)&quot;&gt;&lt;span style=&quot;font-size: 0px;&quot;&gt;├── Pipfile.lock&lt;/span&gt;&lt;/font&gt;&lt;/div&gt;&lt;div&gt;&lt;font face=&quot;monospace&quot; color=&quot;rgba(0, 0, 0, 0)&quot;&gt;&lt;span style=&quot;font-size: 0px;&quot;&gt;├── README.md&lt;/span&gt;&lt;/font&gt;&lt;/div&gt;&lt;div&gt;&lt;font face=&quot;monospace&quot; color=&quot;rgba(0, 0, 0, 0)&quot;&gt;&lt;span style=&quot;font-size: 0px;&quot;&gt;├── _Dockerfile&lt;/span&gt;&lt;/font&gt;&lt;/div&gt;&lt;div&gt;&lt;font face=&quot;monospace&quot; color=&quot;rgba(0, 0, 0, 0)&quot;&gt;&lt;span style=&quot;font-size: 0px;&quot;&gt;├── app.py&lt;/span&gt;&lt;/font&gt;&lt;/div&gt;&lt;div&gt;&lt;font face=&quot;monospace&quot; color=&quot;rgba(0, 0, 0, 0)&quot;&gt;&lt;span style=&quot;font-size: 0px;&quot;&gt;├── data&lt;/span&gt;&lt;/font&gt;&lt;/div&gt;&lt;div&gt;&lt;font face=&quot;monospace&quot; color=&quot;rgba(0, 0, 0, 0)&quot;&gt;&lt;span style=&quot;font-size: 0px;&quot;&gt;│&amp;nbsp; &amp;nbsp;└── xy_states.csv&lt;/span&gt;&lt;/font&gt;&lt;/div&gt;&lt;div&gt;&lt;font face=&quot;monospace&quot; color=&quot;rgba(0, 0, 0, 0)&quot;&gt;&lt;span style=&quot;font-size: 0px;&quot;&gt;├── docker-compose.yaml&lt;/span&gt;&lt;/font&gt;&lt;/div&gt;&lt;div&gt;&lt;font face=&quot;monospace&quot; color=&quot;rgba(0, 0, 0, 0)&quot;&gt;&lt;span style=&quot;font-size: 0px;&quot;&gt;├── instructions.md&lt;/span&gt;&lt;/font&gt;&lt;/div&gt;&lt;div&gt;&lt;font face=&quot;monospace&quot; color=&quot;rgba(0, 0, 0, 0)&quot;&gt;&lt;span style=&quot;font-size: 0px;&quot;&gt;├── modules&lt;/span&gt;&lt;/font&gt;&lt;/div&gt;&lt;div&gt;&lt;font face=&quot;monospace&quot; color=&quot;rgba(0, 0, 0, 0)&quot;&gt;&lt;span style=&quot;font-size: 0px;&quot;&gt;│&amp;nbsp; &amp;nbsp;├── __init__.py&lt;/span&gt;&lt;/font&gt;&lt;/div&gt;&lt;div&gt;&lt;font face=&quot;monospace&quot; color=&quot;rgba(0, 0, 0, 0)&quot;&gt;&lt;span style=&quot;font-size: 0px;&quot;&gt;│&amp;nbsp; &amp;nbsp;├── __pycache__&lt;/span&gt;&lt;/font&gt;&lt;/div&gt;&lt;div&gt;&lt;font face=&quot;monospace&quot; color=&quot;rgba(0, 0, 0, 0)&quot;&gt;&lt;span style=&quot;font-size: 0px;&quot;&gt;│&amp;nbsp; &amp;nbsp;│&amp;nbsp; &amp;nbsp;├── __init__.cpython-38.pyc&lt;/span&gt;&lt;/font&gt;&lt;/div&gt;&lt;div&gt;&lt;font face=&quot;monospace&quot; color=&quot;rgba(0, 0, 0, 0)&quot;&gt;&lt;span style=&quot;font-size: 0px;&quot;&gt;│&amp;nbsp; &amp;nbsp;│&amp;nbsp; &amp;nbsp;├── data_query.cpython-38.pyc&lt;/span&gt;&lt;/font&gt;&lt;/div&gt;&lt;div&gt;&lt;font face=&quot;monospace&quot; color=&quot;rgba(0, 0, 0, 0)&quot;&gt;&lt;span style=&quot;font-size: 0px;&quot;&gt;│&amp;nbsp; &amp;nbsp;│&amp;nbsp; &amp;nbsp;├── plot.cpython-38.pyc&lt;/span&gt;&lt;/font&gt;&lt;/div&gt;&lt;div&gt;&lt;font face=&quot;monospace&quot; color=&quot;rgba(0, 0, 0, 0)&quot;&gt;&lt;span style=&quot;font-size: 0px;&quot;&gt;│&amp;nbsp; &amp;nbsp;│&amp;nbsp; &amp;nbsp;├── sql_queries.cpython-38.pyc&lt;/span&gt;&lt;/font&gt;&lt;/div&gt;&lt;div&gt;&lt;font face=&quot;monospace&quot; color=&quot;rgba(0, 0, 0, 0)&quot;&gt;&lt;span style=&quot;font-size: 0px;&quot;&gt;│&amp;nbsp; &amp;nbsp;│&amp;nbsp; &amp;nbsp;└── utils.cpython-38.pyc&lt;/span&gt;&lt;/font&gt;&lt;/div&gt;&lt;div&gt;&lt;font face=&quot;monospace&quot; color=&quot;rgba(0, 0, 0, 0)&quot;&gt;&lt;span style=&quot;font-size: 0px;&quot;&gt;│&amp;nbsp; &amp;nbsp;├── data_query.py&lt;/span&gt;&lt;/font&gt;&lt;/div&gt;&lt;div&gt;&lt;font face=&quot;monospace&quot; color=&quot;rgba(0, 0, 0, 0)&quot;&gt;&lt;span style=&quot;font-size: 0px;&quot;&gt;│&amp;nbsp; &amp;nbsp;├── plot.py&lt;/span&gt;&lt;/font&gt;&lt;/div&gt;&lt;div&gt;&lt;font face=&quot;monospace&quot; color=&quot;rgba(0, 0, 0, 0)&quot;&gt;&lt;span style=&quot;font-size: 0px;&quot;&gt;│&amp;nbsp; &amp;nbsp;├── sql_queries.py&lt;/span&gt;&lt;/font&gt;&lt;/div&gt;&lt;div&gt;&lt;font face=&quot;monospace&quot; color=&quot;rgba(0, 0, 0, 0)&quot;&gt;&lt;span style=&quot;font-size: 0px;&quot;&gt;│&amp;nbsp; &amp;nbsp;└── utils.py&lt;/span&gt;&lt;/font&gt;&lt;/div&gt;&lt;div&gt;&lt;font face=&quot;monospace&quot; color=&quot;rgba(0, 0, 0, 0)&quot;&gt;&lt;span style=&quot;font-size: 0px;&quot;&gt;├── requirements.txt&lt;/span&gt;&lt;/font&gt;&lt;/div&gt;&lt;div&gt;&lt;font face=&quot;monospace&quot; color=&quot;rgba(0, 0, 0, 0)&quot;&gt;&lt;span style=&quot;font-size: 0px;&quot;&gt;└── secret&lt;/span&gt;&lt;/font&gt;&lt;/div&gt;&lt;div&gt;&lt;font face=&quot;monospace&quot; color=&quot;rgba(0, 0, 0, 0)&quot;&gt;&lt;span style=&quot;font-size: 0px;&quot;&gt;&amp;nbsp; &amp;nbsp; └── local-monitor-1001c-firebase-adminsdk-mqx7i-498d36d75b.json&lt;/span&gt;&lt;/font&gt;&lt;/div&gt;&lt;/div&gt;" style="sketch=0;points=[[0,0,0],[0.25,0,0],[0.5,0,0],[0.75,0,0],[1,0,0],[1,0.25,0],[1,0.5,0],[1,0.75,0],[1,1,0],[0.75,1,0],[0.5,1,0],[0.25,1,0],[0,1,0],[0,0.75,0],[0,0.5,0],[0,0.25,0]];rounded=1;absoluteArcSize=1;arcSize=2;html=1;strokeColor=none;gradientColor=none;shadow=0;dashed=0;fontSize=12;fontColor=#9E9E9E;align=left;verticalAlign=top;spacing=10;spacingTop=-4;fillColor=#EFEBE9;" parent="DWsXqn6DtvlezWm5sOSw-1" vertex="1">
          <mxGeometry x="80" y="68" width="320" height="402" as="geometry" />
        </mxCell>
        <mxCell id="DWsXqn6DtvlezWm5sOSw-37" value="ファイル構成" style="text;strokeColor=none;fillColor=none;html=1;fontSize=24;fontStyle=1;verticalAlign=middle;align=center;" parent="DWsXqn6DtvlezWm5sOSw-1" vertex="1">
          <mxGeometry x="80" y="28" width="160" height="40" as="geometry" />
        </mxCell>
      </root>
    </mxGraphModel>
  </diagram>
  <diagram id="i-IHJQSLo3SjMjOWQqo0" name="E-R図">
    <mxGraphModel dx="910" dy="523" grid="1" gridSize="10" guides="1" tooltips="1" connect="1" arrows="1" fold="1" page="1" pageScale="1" pageWidth="1169" pageHeight="827" math="0" shadow="0">
      <root>
        <mxCell id="NCAFjSBsGvpr9k2f_5j3-0" />
        <mxCell id="NCAFjSBsGvpr9k2f_5j3-1" parent="NCAFjSBsGvpr9k2f_5j3-0" />
      </root>
    </mxGraphModel>
  </diagram>
  <diagram id="IzEv5zryaSdnXfJL00AD" name="UML">
    <mxGraphModel dx="910" dy="523" grid="1" gridSize="10" guides="1" tooltips="1" connect="1" arrows="1" fold="1" page="1" pageScale="1" pageWidth="1169" pageHeight="827" math="0" shadow="0">
      <root>
        <mxCell id="KCmEowvrTylowhZ2uvbx-0" />
        <mxCell id="KCmEowvrTylowhZ2uvbx-1" parent="KCmEowvrTylowhZ2uvbx-0" />
        <mxCell id="RqMcLgHQ81OIAshe2yyF-0" value="GoogleWordItem" style="swimlane;fontStyle=1;align=center;verticalAlign=top;childLayout=stackLayout;horizontal=1;startSize=26;horizontalStack=0;resizeParent=1;resizeParentMax=0;resizeLast=0;collapsible=1;marginBottom=0;" vertex="1" parent="KCmEowvrTylowhZ2uvbx-1">
          <mxGeometry x="480" y="120" width="160" height="148" as="geometry">
            <mxRectangle x="480" y="200" width="100" height="26" as="alternateBounds" />
          </mxGeometry>
        </mxCell>
        <mxCell id="RqMcLgHQ81OIAshe2yyF-1" value="+ title: string&#xa;+ job: string&#xa;+ date: string&#xa;+ text: string" style="text;strokeColor=none;fillColor=none;align=left;verticalAlign=top;spacingLeft=4;spacingRight=4;overflow=hidden;rotatable=0;points=[[0,0.5],[1,0.5]];portConstraint=eastwest;" vertex="1" parent="RqMcLgHQ81OIAshe2yyF-0">
          <mxGeometry y="26" width="160" height="64" as="geometry" />
        </mxCell>
        <mxCell id="RqMcLgHQ81OIAshe2yyF-2" value="" style="line;strokeWidth=1;fillColor=none;align=left;verticalAlign=middle;spacingTop=-1;spacingLeft=3;spacingRight=3;rotatable=0;labelPosition=right;points=[];portConstraint=eastwest;" vertex="1" parent="RqMcLgHQ81OIAshe2yyF-0">
          <mxGeometry y="90" width="160" height="8" as="geometry" />
        </mxCell>
        <mxCell id="RqMcLgHQ81OIAshe2yyF-3" value="+ start_requests(self): &#xa;+ parse(self, response): " style="text;strokeColor=none;fillColor=none;align=left;verticalAlign=top;spacingLeft=4;spacingRight=4;overflow=hidden;rotatable=0;points=[[0,0.5],[1,0.5]];portConstraint=eastwest;" vertex="1" parent="RqMcLgHQ81OIAshe2yyF-0">
          <mxGeometry y="98" width="160" height="50" as="geometry" />
        </mxCell>
      </root>
    </mxGraphModel>
  </diagram>
</mxfile>
